<svg width="848" height="120" viewBox="0 0 848 120" fill="none" xmlns="http://www.w3.org/2000/svg">
<g clip-path="url(#clip0_3872_8214)">
<path d="M597.323 105.999C586.074 105.999 577.292 102.018 570.976 94.0573C564.658 86.01 561.5 74.5446 561.5 59.6614C561.5 52.4793 562.279 46.0329 563.836 40.3218C565.481 34.5243 567.86 29.6353 570.976 25.6549C574.091 21.5879 577.941 18.5161 582.527 16.4394C587.2 14.2761 592.522 13.1945 598.491 13.1945C602.645 13.1945 606.366 13.8002 609.654 15.0116C612.942 16.1366 615.625 17.4345 617.702 18.9055V31.4957C615.366 30.0246 612.596 28.6402 609.395 27.3422C606.28 26.0442 602.905 25.3953 599.27 25.3953C591.569 25.3953 585.989 28.2075 582.527 33.832C579.152 39.37 577.465 47.9798 577.465 59.6614C577.465 70.9969 579.152 79.5202 582.527 85.2312C585.989 90.9423 591.309 93.7977 598.491 93.7977C602.645 93.7977 606.237 93.192 609.265 91.9806C612.293 90.6827 615.106 89.0818 617.702 87.1781V99.7684C615.711 101.153 613.029 102.537 609.654 103.922C606.366 105.306 602.256 105.999 597.323 105.999Z" fill="white"/>
<path d="M643.577 104.701H628.131V14.4925H643.577V104.701Z" fill="white"/>
<path d="M682.739 38.1163C686.979 38.1163 690.874 38.8518 694.421 40.3228C697.969 41.7939 700.997 44.0004 703.507 46.9424C706.016 49.798 707.963 53.3457 709.347 57.5857C710.819 61.7392 711.554 66.5416 711.554 71.993C711.554 77.4445 710.819 82.2902 709.347 86.5301C707.963 90.7701 706.016 94.3612 703.507 97.3033C700.997 100.159 697.969 102.323 694.421 103.793C690.874 105.264 686.979 106 682.739 106C678.499 106 674.605 105.264 671.058 103.793C667.51 102.323 664.482 100.159 661.972 97.3033C659.462 94.3612 657.473 90.8135 656.002 86.6599C654.617 82.42 653.925 77.5742 653.925 72.1228C653.925 66.6714 654.617 61.8257 656.002 57.5857C657.473 53.3457 659.462 49.798 661.972 46.9424C664.482 44.0004 667.51 41.7939 671.058 40.3228C674.605 38.8518 678.499 38.1163 682.739 38.1163ZM682.739 93.7987C687.066 93.7987 690.267 92.0682 692.344 88.607C694.508 85.1456 695.589 79.6077 695.589 71.993C695.589 64.3784 694.508 58.8837 692.344 55.5089C690.267 52.0477 687.066 50.3172 682.739 50.3172C678.413 50.3172 675.167 52.0477 673.005 55.5089C670.928 58.9701 669.89 64.5082 669.89 72.1228C669.89 79.7375 670.928 85.2754 673.005 88.7367C675.167 92.1114 678.413 93.7987 682.739 93.7987Z" fill="white"/>
<path d="M757.633 39.4144H773.078V104.702H758.022L757.633 99.2503H756.854C755.296 100.808 753.09 102.279 750.234 103.664C747.465 105.048 743.745 105.741 739.072 105.741C732.755 105.741 728.213 104.27 725.443 101.327C722.674 98.2985 721.29 93.5393 721.29 87.0495V39.4144H736.736V85.492C736.736 90.3377 739.375 92.7606 744.654 92.7606C747.422 92.7606 749.889 92.1115 752.051 90.8136C754.301 89.5156 756.162 88.0013 757.633 86.2708V39.4144Z" fill="white"/>
<path d="M825.501 96.2639C821.261 102.754 815.463 105.999 808.108 105.999C804.474 105.999 801.143 105.263 798.113 103.792C795.085 102.322 792.489 100.158 790.326 97.3023C788.163 94.4468 786.475 90.9423 785.264 86.7888C784.053 82.6353 783.447 77.8762 783.447 72.5113C783.447 67.0598 784.053 62.2141 785.264 57.9741C786.562 53.6476 788.292 50.0566 790.456 47.201C792.706 44.259 795.389 42.0092 798.503 40.4517C801.618 38.8941 805.036 38.1153 808.757 38.1153C815.507 38.1153 820.957 41.1007 825.111 47.0712V14.4925H840.557V104.701H826.279L825.501 96.2639ZM812.651 50.3162C808.238 50.3162 804.906 52.09 802.656 55.6378C800.494 59.099 799.411 64.7235 799.411 72.5113C799.411 79.9529 800.45 85.361 802.527 88.7357C804.603 92.1104 807.762 93.7978 812.002 93.7978C816.242 93.7978 819.444 92.197 821.606 88.9953C823.77 85.7071 824.938 80.4288 825.111 73.1602V69.7855C824.938 63.0362 823.813 58.1039 821.736 54.9888C819.659 51.8737 816.631 50.3162 812.651 50.3162Z" fill="white"/>
<path d="M505.944 108.562C493.975 116.753 479.545 116.327 450.583 116.5L427.588 116.461L439.221 85.1285L456.458 85.096C470.478 85.1272 478.843 84.0637 485.648 79.1938C492.269 74.4514 496.302 67.1607 501.147 54.005L507.171 37.855L540.593 37.8416L532.571 59.3232C522.403 86.5106 517.784 100.188 505.944 108.562Z" fill="#2A9FFF"/>
<path d="M439.06 11.4379C451.029 3.24704 465.458 3.67246 494.421 3.5L517.415 3.53882L505.783 34.8713L488.546 34.9038C474.526 34.8726 466.161 35.9361 459.356 40.806C452.734 45.5484 448.702 52.839 443.856 65.9948L437.833 82.1448L404.41 82.1582L412.433 60.6767C422.601 33.4892 427.219 19.8119 439.06 11.4379Z" fill="#2A9FFF"/>
<path d="M381.921 39.3863H366.519L355.279 59.1369L342.803 39.3863H325.417L345.168 70.6621L324.664 104.677H340.351L353.482 82.6603L367.371 104.677H384.851L363.495 71.0414L381.921 39.3863Z" fill="white"/>
<path d="M294.994 38.064C276.19 38.064 267.216 52.5198 267.216 72.2655C267.216 94.9416 278.367 105.999 298.112 105.999C308.032 105.999 315.306 103.447 319.843 100.33V87.6669C315.026 90.8782 306.993 93.8088 299.432 93.8088C288.094 93.8088 283.843 88.4255 283.178 77.5553H320.503V69.3348C320.503 46.6587 310.49 38.059 294.989 38.059L294.994 38.064ZM304.727 66.1235H283.183C283.563 55.7311 287.341 50.2492 294.808 50.2492C302.274 50.2492 304.727 56.5783 304.727 64.7987V66.1235Z" fill="white"/>
<path d="M241.88 47.0394C238.004 41.1832 232.24 38.0655 225.533 38.0655C210.511 38.0655 200.117 50.9156 200.117 72.459C200.117 94.0024 210.323 106 224.873 106C232.148 106 238.102 102.597 242.259 96.2681L243.013 104.676H257.281V14.4436H241.88V47.0394ZM228.749 93.8103C220.342 93.8103 216.184 87.9541 216.184 72.459C216.184 56.9639 220.528 50.2557 229.414 50.2557C237.728 50.2557 241.885 56.7768 241.885 71.9862C241.885 87.1956 237.442 93.8103 228.749 93.8103Z" fill="white"/>
<path d="M171.963 38.347C162.704 38.347 157.321 41.6519 154.197 44.7696H153.346L152.966 39.3862H137.944V104.676H153.346V57.8119C156.276 54.3149 160.812 51.2907 166.383 51.2907C171.953 51.2907 174.318 53.6549 174.318 58.5654V104.676H189.719V57.0533C189.719 44.016 184.523 38.347 171.953 38.347H171.963Z" fill="white"/>
<path d="M125.294 60.1768C125.294 44.3025 117.261 38.3527 100.918 38.3527C90.8071 38.2591 82.5866 42.6032 77.8632 46.0066V59.3296C82.8723 55.3598 90.3342 50.6364 99.1209 50.6364C106.489 50.6364 109.893 53.2814 109.893 60.2753V64.4322H107.435C83.7195 64.4322 73.2335 72.0862 73.2335 85.6899C73.2335 98.353 81.2666 105.627 93.2648 105.627C102.337 105.627 106.208 102.604 109.233 99.4859H109.893C109.986 101.185 110.553 103.362 111.026 104.682H126.142C125.575 99.3922 125.289 94.0039 125.289 88.7141V60.1817L125.294 60.1768ZM109.893 89.0884C107.908 92.0191 104.317 94.2847 98.8403 94.2847C92.3192 94.2847 89.1077 90.507 89.1077 84.8379C89.1077 77.2775 94.3976 74.7262 107.627 74.7262H109.893V89.0884Z" fill="white"/>
<path d="M63.8739 14.4436L44.6011 58.0968H60.6626L79.8418 14.4436H63.8739Z" fill="white"/>
<path d="M21.3472 14.4436H5L34.6701 78.8816V104.676H50.3524V89.3676C50.3524 77.8424 48.934 74.439 44.4962 64.8001L21.3472 14.4436Z" fill="white"/>
</g>
<defs>
<clipPath id="clip0_3872_8214">
<rect width="848" height="120" fill="white"/>
</clipPath>
</defs>
</svg>
