<svg xmlns="http://www.w3.org/2000/svg" viewBox="0 0 602.62 159.76"><defs><style>.cls-1,.cls-3{fill:#de2560;}.cls-2{fill:#fff;}.cls-3{font-size:80px;font-family:YandexSansDisplay-Bold, Yandex Sans Display;font-weight:700;}</style></defs><title>ребеноклого 2</title><g id="Слой_2" data-name="Слой 2"><path class="cls-1" d="M888.35,647l.13-.09-.13-.09Z" transform="translate(-803.46 -489.63)"/><path class="cls-1" d="M888.48,533.63a2.47,2.47,0,0,0,.45-.92,2.44,2.44,0,0,0-.46-1.94Z" transform="translate(-803.46 -489.63)"/><path class="cls-1" d="M959.49,504.58a46.11,46.11,0,0,0-71.32,5.47l.28.39,0,15.74c2.76,1.06,5.22,4,5.34,6.94a4.77,4.77,0,0,1-.41,2.06,42.26,42.26,0,0,1,7.54,1.42,24.81,24.81,0,0,1,13.42,8.74,33,33,0,0,1,4.95,9.27,15.92,15.92,0,0,1,.73,4.55,56.69,56.69,0,0,1-.49,6.49h0c-.17,1.27-.45,1.81-.73,3.13,0,.13,0,.3,0,.25.4-1,1.63-1.36,2.89-1.28s2.31,2.27,2.49,2.69c1.72,3.9,0,10.61-4.46,12.59a7.18,7.18,0,0,1-3,.59,9.57,9.57,0,0,1-.91,2.84,12.59,12.59,0,0,1-3.6,3.93c-1.94,1.53-4,2.37-9.81,3.57a58.21,58.21,0,0,1-13.92,1.44l.06,51.38c24.55-17.3,40.46-34,52.26-46.7,21-22.63,25-33.23,26.76-39.09C969.67,554.11,978.49,524.42,959.49,504.58Z" transform="translate(-803.46 -489.63)"/><path class="cls-1" d="M888.61,647v-.18l-.13.09Z" transform="translate(-803.46 -489.63)"/><path class="cls-1" d="M886.69,595.36c-4.87-.11-8.31-.15-12.56-1.13l-1-.24c-3.12-.8-6.15-1.57-9.09-3.66a21.25,21.25,0,0,1-4-4,9.68,9.68,0,0,1-1.09-1.82c-.27-.6-.38-.57-.52-.66-.86-.55-1.64.46-3.41-.26-2.82-1.15-4.41-5.92-4.66-6.89-.47-1.83-1.21-4.72.4-6.82.18-.23,1.57-2,3.34-1.7a3.12,3.12,0,0,1,2.07,1c0-.38,0-.22,0-.88,0-5.28-.58-15.71,4.61-22.21,4.87-6.1,11.27-8,16.39-9.51a42.1,42.1,0,0,1,9.62-1.62,6.25,6.25,0,0,0,1.4-1v-3.66a22.66,22.66,0,0,1-2-2.53,1.3,1.3,0,0,1,1.45-1.89l.53.16,0-16,0,0a48.1,48.1,0,0,0-24.34-17.62A48.79,48.79,0,0,0,816,504.19c-19.52,19.53-10.87,49.16-8.86,56,1.71,5.85,5.66,16.44,26.79,39.18a347.81,347.81,0,0,0,54.46,47.38l-.08-51.39Z" transform="translate(-803.46 -489.63)"/><path class="cls-1" d="M888.27,595.39l.08,51.39.13.09.13-.09-.06-51.38Z" transform="translate(-803.46 -489.63)"/><path class="cls-1" d="M888.48,533.63v-2.86a4.27,4.27,0,0,0-.3-.44V534A3.47,3.47,0,0,0,888.48,533.63Z" transform="translate(-803.46 -489.63)"/><path class="cls-1" d="M888.47,526.18l0-15.74-.28-.39,0,0,0,16Z" transform="translate(-803.46 -489.63)"/><path class="cls-2" d="M924.2,570.44c-.18-.42-1.09-2.6-2.49-2.69s-2.49.29-2.89,1.28c0,.05,0-.12,0-.25.28-1.32.56-1.86.73-3.13h0a56.69,56.69,0,0,0,.49-6.49,15.92,15.92,0,0,0-.73-4.55,33,33,0,0,0-4.95-9.27,24.81,24.81,0,0,0-13.42-8.74,42.26,42.26,0,0,0-7.54-1.42,4.92,4.92,0,0,1-3.83,3,1.13,1.13,0,0,1,.35,1.26c0,.06,0,.12-.06.19a6.21,6.21,0,0,1,.78,1.88,1.92,1.92,0,0,1,1.76,1.81c.19,2-2,3.39-3.91,4l.06,48.07A58.21,58.21,0,0,0,902.47,594c5.82-1.2,7.87-2,9.81-3.57a12.59,12.59,0,0,0,3.6-3.93,9.57,9.57,0,0,0,.91-2.84,7.18,7.18,0,0,0,3-.59C924.22,581.05,925.92,574.34,924.2,570.44Z" transform="translate(-803.46 -489.63)"/><path class="cls-2" d="M887.5,547.58a1.32,1.32,0,0,1-1.5-.84,2.63,2.63,0,0,1-1.8-1.35c-.73-1.56,1-2.61,2.47-3.19a6.2,6.2,0,0,1,.11-2.71c0-.12,0-.24,0-.36a1.26,1.26,0,0,1,.16-.55l0-.32a1.4,1.4,0,0,1,0-.47c-.52.26-1,.49-1.52.7-1.5.65-2.81-1.56-1.29-2.22a25.59,25.59,0,0,0,2.62-1.23,42.1,42.1,0,0,0-9.62,1.62c-5.12,1.51-11.52,3.41-16.39,9.51-5.19,6.5-4.64,16.93-4.61,22.21,0,.66,0,.5,0,.88a3.12,3.12,0,0,0-2.07-1c-1.77-.35-3.16,1.47-3.34,1.7-1.61,2.1-.87,5-.4,6.82.25,1,1.84,5.74,4.66,6.89,1.77.72,2.55-.29,3.41.26.14.09.25.06.52.66a9.68,9.68,0,0,0,1.09,1.82,21.25,21.25,0,0,0,4,4c2.94,2.09,6,2.86,9.09,3.66l1,.24c4.25,1,7.69,1,12.56,1.13l1.58,0-.07-48C888,547.49,887.72,547.54,887.5,547.58Z" transform="translate(-803.46 -489.63)"/><path class="cls-2" d="M888.2,547.42l.07,48h.28l-.06-48.07Z" transform="translate(-803.46 -489.63)"/><text class="cls-3" transform="translate(206.22 67.8)">— Марина<tspan x="0" y="73" xml:space="preserve"> Ивановна</tspan></text><path class="cls-1" d="M898.38,533.34c-1.33-3.2-5.31-4.64-8.52-4.92a15.07,15.07,0,0,0-10.42,3c-.49.38-.29.81.25.93a2.71,2.71,0,0,0,2-.55A9.42,9.42,0,0,1,888.8,530c2.55.35,5.63,1.61,6.68,4.14.39.93,3.24,0,2.9-.78Z" transform="translate(-803.46 -489.63)"/><path class="cls-1" d="M885.37,528.42l4.24.37.61-2.21a30.57,30.57,0,0,1-3.17.08c-.9,0-2.27,1.21-1.23,2a6.42,6.42,0,0,0,4.16.89c.31,0,.61,0,.92,0s-.14,0,.18,0l.42,0a1.48,1.48,0,0,1,1,.46,1.66,1.66,0,0,0,2,.25c.5-.25,1.16-1,.67-1.56a20.13,20.13,0,0,0-3.89-3.54c-1.54-1-3.39-2.17-5.34-1.9a1.85,1.85,0,0,0-1.42.79.86.86,0,0,0,.2,1.19,10.09,10.09,0,0,0,5.43,1.43l.6-2.21-5.15.28a1.68,1.68,0,0,0-1.54,1.07c-.16.65.35,1,.94,1.14a17.74,17.74,0,0,0,4.12.26l.23-2.22a43.2,43.2,0,0,0-4.66.8l.94,2c.17-.07.2-.09.07,0l.31-.08c-.19,0,.34,0,.41,0l-.16-2.15a6.29,6.29,0,0,1-1.85.38l.54,2,.25-.11c-.14.06-.1,0,0,0l.34-.08c.23-.06-.22,0,0,0a5.27,5.27,0,0,1,.56,0c.24,0-.18,0,.05,0l.35,0,.28.06c-.14,0,0,0,.07,0l.52.19a4.25,4.25,0,0,1,.89.62c1,.9,3.5-.59,2.22-1.73a6.38,6.38,0,0,0-6.88-.76c-.46.22-.95.74-.8,1.3s.83.75,1.34.72a9.22,9.22,0,0,0,2.64-.51c.55-.2,1.25-.6,1.18-1.29s-.76-.88-1.35-.87a6.08,6.08,0,0,0-2.33.56c-.52.23-1,.85-.73,1.43a1.42,1.42,0,0,0,1.66.52,34.82,34.82,0,0,1,3.87-.67c.65-.07,1.51-.45,1.58-1.21s-.75-1-1.35-1a14.14,14.14,0,0,1-3.37-.24l-.61,2.22,5.15-.29a1.67,1.67,0,0,0,1.55-1.06,1,1,0,0,0-.94-1.15,18.82,18.82,0,0,1-2.37-.23,4.45,4.45,0,0,1-1.82-.73l-1.23,2a1.72,1.72,0,0,1,.78,0,5.57,5.57,0,0,1,1.1.46,15.89,15.89,0,0,1,1.74,1.1,17.77,17.77,0,0,1,3.2,2.93l2.64-1.31a5.15,5.15,0,0,0-4-1.43c-.31,0-.61,0-.92,0l-.86,0a2.4,2.4,0,0,1-1.38-.4l-1.22,2a30.49,30.49,0,0,0,3.17-.07,1.7,1.7,0,0,0,1.55-1.07,1,1,0,0,0-.95-1.15l-4.24-.37a1.86,1.86,0,0,0-1.89.9,1,1,0,0,0,.91,1.3Z" transform="translate(-803.46 -489.63)"/><path class="cls-1" d="M896.62,533.49a3.9,3.9,0,0,0-1-2.77,17.24,17.24,0,0,0-1.85-2.23,1.13,1.13,0,0,0-.77-.23,3,3,0,0,0-1.14.23c-.32.14-1.23.64-.79,1.11a17.07,17.07,0,0,1,2.33,3l-.1-.17a2.79,2.79,0,0,1,.49,1.44v-.19l0,.24c-.09.61.84.62,1.24.56a2.93,2.93,0,0,0,1.1-.37c.2-.13.51-.32.55-.58Z" transform="translate(-803.46 -489.63)"/><path class="cls-1" d="M896.27,531.18a4.7,4.7,0,0,0-.95-.94c-.31-.27-.64-.54-1-.79s-.65-.49-1-.72a4.94,4.94,0,0,0-.49-.3,3.4,3.4,0,0,0-1-.34,2.14,2.14,0,0,0-1.14.21,1.55,1.55,0,0,0-.75.66.66.66,0,0,0,0,.75,1.28,1.28,0,0,0,.81.38h.06l-.33-.07a1.48,1.48,0,0,1,.35.13l-.27-.13a9.15,9.15,0,0,1,1.38,1c.46.35.91.71,1.34,1.1l-.21-.19a2.52,2.52,0,0,1,.49.54,1.21,1.21,0,0,0,.82.38,2.25,2.25,0,0,0,1.14-.21c.53-.27,1.08-.8.7-1.42Z" transform="translate(-803.46 -489.63)"/><path class="cls-1" d="M896.43,532.84c-1.77-.14-3.54-.26-5.32-.38a15.11,15.11,0,0,0-5.28.26c-.51.15-1.14.53-1.2,1.12s.48.93,1,1q2.64.21,5.28.3l2.73.07a4.08,4.08,0,0,0,2.65-.71c.63-.47.71-1.38-.13-1.67l-5.73-2-1.32,2.06a23.09,23.09,0,0,0,5.19.25,1.71,1.71,0,0,0,1.55-1.05.94.94,0,0,0-.93-1.11l-5.77-.26-1,2.14a25.07,25.07,0,0,0,6.58-.61,1.53,1.53,0,0,0,1.2-1.12c.05-.55-.48-.92-1-1l-6.43-.64-.62,2.15,4.47-.71c.61-.1,1.39-.37,1.56-1a.93.93,0,0,0-.94-1.11l-5.58-.18-.61,2.15a9.26,9.26,0,0,0,3.55-.75c1-.41,1.1-1.86-.16-2a33.38,33.38,0,0,0-6.16.13c-.64.07-1.52.44-1.59,1.19s.76,1,1.34,1a29.74,29.74,0,0,1,5.42-.15l-.15-2a5.32,5.32,0,0,1-2,.34,1.68,1.68,0,0,0-1.55,1,.93.93,0,0,0,.93,1.11l5.58.19.62-2.16-4.48.72c-.61.1-1.38.36-1.55,1a.93.93,0,0,0,.94,1.11l6.43.64.22-2.09a19.32,19.32,0,0,1-5,.51,1.91,1.91,0,0,0-1.89.89.92.92,0,0,0,.89,1.25l5.78.27.61-2.16a19.43,19.43,0,0,1-4.44-.22,1.89,1.89,0,0,0-1.8.76.84.84,0,0,0,.47,1.3l5.73,2-.14-1.68c.12-.09.33,0,.16-.1a1.78,1.78,0,0,0-.4,0H893l-2.09-.07q-2.18-.09-4.35-.27l-.22,2.09a12.4,12.4,0,0,1,4.21-.11l4.85.34a1.9,1.9,0,0,0,1.89-.89.92.92,0,0,0-.89-1.25Z" transform="translate(-803.46 -489.63)"/><path class="cls-1" d="M886.85,532.89a2.86,2.86,0,0,0-1.92.52c-.19.15-.5.37-.53.65a.54.54,0,0,0,.31.57,5,5,0,0,0,2.63.4L890,535a3,3,0,0,0,1.14-.22,1.67,1.67,0,0,0,.77-.59.53.53,0,0,0,0-.65,1.15,1.15,0,0,0-.79-.3l-2.44.06c-.36,0-.72,0-1.09,0l-.26,0c-.24,0,.27.07,0,0,0,0-.21,0-.22-.06.15.06.17.07.06,0l-.14-.07-.23,1.22c.22-.15,0-.12-.51.11s-.76.14-.5.16a2.5,2.5,0,0,0,1.14-.22,1.68,1.68,0,0,0,.77-.6.56.56,0,0,0,0-.65,1.26,1.26,0,0,0-.79-.29Z" transform="translate(-803.46 -489.63)"/><path class="cls-1" d="M893.32,533.13c-1.44-.82-3.58-.16-5.05.27a19.93,19.93,0,0,0-4.73,2.07,14.5,14.5,0,0,0-3.74,3.19,6,6,0,0,0-1.16,4.32,7.54,7.54,0,0,0,4.92,6.46,9.4,9.4,0,0,0,8.84-1.9c1.08-1,2-2.84,1.12-4.24s-2.91-1.42-4.41-1.36a2.93,2.93,0,0,0-1.94.7c-.39.5.35.52.69.51a3,3,0,0,1,2.77.93,2.77,2.77,0,0,1-.28,3c-1.11,1.66-3,1.83-4.73,1.1a7,7,0,0,1-3.93-5,5.67,5.67,0,0,1,2.24-6.24,13.46,13.46,0,0,1,3.38-2.15,10.77,10.77,0,0,1,1.57-.54c.52-.14,1.21-.41,1.71-.12a2.49,2.49,0,0,0,1.87-.15c.15-.05,1.32-.59.86-.85Z" transform="translate(-803.46 -489.63)"/><path class="cls-1" d="M900.85,562.42l.15-.27a.67.67,0,0,0,0-.74,1.08,1.08,0,0,0-.64-.33,2.08,2.08,0,0,0-.93,0,1.86,1.86,0,0,0-1,.55,3.21,3.21,0,0,0-.73,1.77,3.06,3.06,0,0,0,.48,1.79,1.81,1.81,0,0,0,.92.78,2.53,2.53,0,0,0,2.15-.38,2,2,0,0,0,.77-1.14,5.78,5.78,0,0,0,.13-.93,8.5,8.5,0,0,0,0-1.13,2.49,2.49,0,0,0-.13-.77,1.36,1.36,0,0,0-.9-.86,2.66,2.66,0,0,0-2.24.38,1.74,1.74,0,0,0-.77,1.21,3.54,3.54,0,0,0,.1,1,4.83,4.83,0,0,0,.4,1,2.74,2.74,0,0,0,.23.36,1.54,1.54,0,0,0,1.3.41,2.33,2.33,0,0,0,1.5-.73,1.72,1.72,0,0,0,.33-.61,3.22,3.22,0,0,0,.3-1.22,2.1,2.1,0,0,0-.28-1.12,1.81,1.81,0,0,0-.75-.7,2.06,2.06,0,0,0-2.07.2,2.4,2.4,0,0,0-1.06,1.61c-.08.69.77.91,1.31.85a2.15,2.15,0,0,0,1.09-.39,1.15,1.15,0,0,0,.52-.72,1.84,1.84,0,0,1,0-.25l-.08.25a1.41,1.41,0,0,1,.17-.32l-.18.24a1.8,1.8,0,0,1,.19-.2l-.26.22.13-.1-2.07.2a1.24,1.24,0,0,1,.27.17l-.21-.18a1.49,1.49,0,0,1,.31.4l-.12-.23a1.48,1.48,0,0,1,.13.51v-.26a2.46,2.46,0,0,1-.16.89l.09-.26a3.08,3.08,0,0,1-.21.53l.17-.25-.06.07.25-.22,0,0,.7-.32.31-.06.7.06h0l.27.12,0,0,.2.18a2.5,2.5,0,0,1-.25-.41l.12.23a3.14,3.14,0,0,1-.34-1.23v.26a1.29,1.29,0,0,1,0-.44l-.09.25.08-.14-.18.25.07-.08-.25.22,0,0a1.41,1.41,0,0,1-.37.18.84.84,0,0,1-.44.08c-.32,0-.4,0-.26,0l-.33-.06.09,0-.28-.12.11.06-.21-.18a.74.74,0,0,1,.16.2l-.12-.23a2.72,2.72,0,0,1,.16.93V563a5.54,5.54,0,0,1-.15,1.77l.08-.26a1.08,1.08,0,0,1-.12.24l.18-.25-.09.1.26-.22c-.21.15,0,.08.55-.24.65,0,.84,0,.59-.07l.33.07-.06,0,.28.12a.55.55,0,0,1-.14-.09l.21.18a2.12,2.12,0,0,1-.41-.57l.12.23a2.41,2.41,0,0,1-.24-.91v.26a2.5,2.5,0,0,1,.11-.82l-.09.25a2.73,2.73,0,0,1,.32-.61l-.18.24,0,0-2.57-.5-.15.27a.67.67,0,0,0,0,.74,1.18,1.18,0,0,0,.81.37,2,2,0,0,0,1.89-.86Z" transform="translate(-803.46 -489.63)"/><path class="cls-1" d="M878,562.34l.08-.35c.12-.56-.89-.46-1.2-.41a3.64,3.64,0,0,0-1.1.36,1.14,1.14,0,0,0-.58.5,3.53,3.53,0,0,0,.62,3.38,1.75,1.75,0,0,0,.75.59,2.73,2.73,0,0,0,1.47-.07,2.89,2.89,0,0,0,1.29-.66c.48-.48.33-1.27.25-1.86a9.9,9.9,0,0,0-.21-1.11,4.71,4.71,0,0,0-.32-1,1.1,1.1,0,0,0-.72-.66,2.68,2.68,0,0,0-1.29,0,3.15,3.15,0,0,0-1.54.73c-.56.54-.3,1.35,0,2a5.75,5.75,0,0,0,.53.9,1.91,1.91,0,0,0,.31.38c.35.33,1,.22,1.42.13a2.53,2.53,0,0,0,1.48-.72,1,1,0,0,0,.2-.58,5.32,5.32,0,0,0,0-1.32,2,2,0,0,0-1.29-1.66,2.41,2.41,0,0,0-1.33.06,2.28,2.28,0,0,0-1.18.61,2.08,2.08,0,0,0-.42,1.5c0,.2.4.26.53.28a3.38,3.38,0,0,0,2-.55c.16-.13.34-.27.32-.5a1.37,1.37,0,0,1,0-.35l0,.16a1.81,1.81,0,0,1,.24-.71l-.11.17a.44.44,0,0,1,.08-.11l-2.51.67.17.07-.18-.09a1.49,1.49,0,0,1,.54.49l-.09-.13a2.78,2.78,0,0,1,.32,1.75l0-.16a1.74,1.74,0,0,1-.12.68l.11-.17.13-.11,1-.43h0l1.07-.12h0l.44.14a1.77,1.77,0,0,1-.43-.51l.09.13a3.56,3.56,0,0,1-.69-1.87V562a.9.9,0,0,1,.09-.32l-.11.17c.21-.28.18,0-.51.27l-.78.21c-.71-.1-.93-.1-.66,0l-.18-.1a.75.75,0,0,1,.24.23l-.09-.14a4.6,4.6,0,0,1,.52,1.58,6.15,6.15,0,0,1,.19,1.71v-.16a1,1,0,0,1-.11.39l.11-.17c-.2.28-.19-.06.59-.33l.77-.2h.73l.18.09a2.09,2.09,0,0,1-.64-.65l.09.13a3.37,3.37,0,0,1-.57-2.12v.17a3,3,0,0,1,.17-.79l-2.88.45-.07.36c-.12.56.89.46,1.19.41a3.47,3.47,0,0,0,1.1-.36c.19-.11.53-.27.58-.51Z" transform="translate(-803.46 -489.63)"/></g><g id="Слой_7" data-name="Слой 7"><path class="cls-1" d="M901.17,578.17c-1.82,1.49-3.7,3.08-6,3.77a23.18,23.18,0,0,1-7.38.73,20.41,20.41,0,0,1-7-1.38,17,17,0,0,1-2.91-1.5c-.48-.31-2.28-1.37-2.34-2L874.26,579l.1,0-1.65-.34,0,.07c.52,1,3.33.05,2.9-.78l0-.07c-.28-.54-1.14-.51-1.64-.34l-.1,0c-.49.17-1.32.47-1.25,1.12.08.84,1.76,1.78,2.39,2.22a17.36,17.36,0,0,0,3.44,1.87,24.42,24.42,0,0,0,8.7,1.64,27.19,27.19,0,0,0,9.06-1.14,23.92,23.92,0,0,0,7.28-4.55c.5-.4.27-.88-.27-1a2.54,2.54,0,0,0-2.05.55Z" transform="translate(-803.46 -489.63)"/></g></svg>