<svg width="142" height="20" viewBox="0 0 142 20" fill="none" xmlns="http://www.w3.org/2000/svg">
<g clip-path="url(#clip0_5_123)">
<path d="M100.023 17.6665C98.1398 17.6665 96.6692 17.003 95.6115 15.6762C94.5536 14.335 94.0248 12.4241 94.0248 9.94358C94.0248 8.74658 94.1552 7.67217 94.416 6.72032C94.6914 5.75407 95.0898 4.93924 95.6115 4.27584C96.1331 3.59801 96.7779 3.08604 97.5458 2.73992C98.3283 2.37937 99.2194 2.1991 100.219 2.1991C100.915 2.1991 101.538 2.30006 102.088 2.50195C102.639 2.68945 103.088 2.90577 103.436 3.15094V5.2493C103.045 5.00413 102.581 4.77338 102.045 4.55706C101.523 4.34072 100.958 4.23257 100.35 4.23257C99.0599 4.23257 98.1255 4.70127 97.5458 5.63869C96.9807 6.56168 96.6981 7.99666 96.6981 9.94358C96.6981 11.8328 96.9807 13.2534 97.5458 14.2052C98.1255 15.1571 99.0165 15.633 100.219 15.633C100.915 15.633 101.516 15.532 102.023 15.3301C102.53 15.1138 103.001 14.847 103.436 14.5297V16.6281C103.103 16.8589 102.654 17.0896 102.088 17.3204C101.538 17.551 100.849 17.6665 100.023 17.6665Z" fill="black"/>
<path d="M107.769 17.4502H105.182V2.41544H107.769V17.4502Z" fill="black"/>
<path d="M114.327 6.35274C115.037 6.35274 115.689 6.47532 116.283 6.72049C116.877 6.96567 117.384 7.33342 117.804 7.82376C118.224 8.29968 118.55 8.89098 118.782 9.59763C119.029 10.2899 119.152 11.0903 119.152 11.9989C119.152 12.9074 119.029 13.7151 118.782 14.4217C118.55 15.1284 118.224 15.7269 117.804 16.2172C117.384 16.6932 116.877 17.0538 116.283 17.2989C115.689 17.544 115.037 17.6667 114.327 17.6667C113.617 17.6667 112.965 17.544 112.371 17.2989C111.776 17.0538 111.269 16.6932 110.849 16.2172C110.429 15.7269 110.096 15.1356 109.849 14.4433C109.617 13.7367 109.502 12.9291 109.502 12.0205C109.502 11.1119 109.617 10.3043 109.849 9.59763C110.096 8.89098 110.429 8.29968 110.849 7.82376C111.269 7.33342 111.776 6.96567 112.371 6.72049C112.965 6.47532 113.617 6.35274 114.327 6.35274ZM114.327 15.6331C115.051 15.6331 115.587 15.3447 115.935 14.7678C116.297 14.191 116.478 13.268 116.478 11.9989C116.478 10.7297 116.297 9.81396 115.935 9.25151C115.587 8.67464 115.051 8.38621 114.327 8.38621C113.602 8.38621 113.059 8.67464 112.697 9.25151C112.349 9.82838 112.175 10.7514 112.175 12.0205C112.175 13.2896 112.349 14.2126 112.697 14.7895C113.059 15.3519 113.602 15.6331 114.327 15.6331Z" fill="black"/>
<path d="M126.868 6.56908H129.454V17.4504H126.933L126.868 16.5417H126.737C126.477 16.8014 126.107 17.0465 125.629 17.2773C125.165 17.5079 124.542 17.6234 123.76 17.6234C122.702 17.6234 121.941 17.3783 121.477 16.8879C121.014 16.3831 120.782 15.5899 120.782 14.5083V6.56908H123.368V14.2487C123.368 15.0563 123.81 15.4601 124.694 15.4601C125.158 15.4601 125.571 15.3519 125.933 15.1356C126.31 14.9193 126.621 14.6669 126.868 14.3785V6.56908Z" fill="black"/>
<path d="M138.232 16.044C137.522 17.1257 136.552 17.6665 135.32 17.6665C134.711 17.6665 134.154 17.5439 133.646 17.2988C133.139 17.0536 132.705 16.693 132.342 16.2171C131.98 15.7411 131.697 15.1571 131.495 14.4648C131.292 13.7726 131.19 12.9794 131.19 12.0852C131.19 11.1767 131.292 10.369 131.495 9.66237C131.712 8.94129 132.002 8.34278 132.364 7.86686C132.741 7.37653 133.19 7.00155 133.712 6.74196C134.233 6.48238 134.806 6.35257 135.429 6.35257C136.559 6.35257 137.472 6.85013 138.167 7.84523V2.41544H140.754V17.4502H138.363L138.232 16.044ZM136.081 8.38605C135.342 8.38605 134.784 8.68168 134.407 9.27298C134.045 9.84985 133.864 10.7873 133.864 12.0852C133.864 13.3255 134.038 14.2269 134.385 14.7893C134.733 15.3518 135.262 15.633 135.972 15.633C136.682 15.633 137.218 15.3662 137.58 14.8326C137.943 14.2845 138.138 13.4048 138.167 12.1934V11.6309C138.138 10.506 137.95 9.684 137.602 9.16483C137.254 8.64564 136.747 8.38605 136.081 8.38605Z" fill="black"/>
<path d="M84.7217 18.0938C82.7175 19.4588 80.3011 19.3879 75.4513 19.4167L71.6009 19.4102L73.5488 14.1881L76.4352 14.1827C78.7828 14.1879 80.1836 14.0107 81.3231 13.199C82.4319 12.4086 83.1072 11.1935 83.9185 9.00087L84.9272 6.30921L90.5238 6.30698L89.1805 9.88723C87.4779 14.4185 86.7044 16.6981 84.7217 18.0938Z" fill="#2A9FFF"/>
<path d="M73.5218 1.90636C75.526 0.541214 77.9422 0.612117 82.7922 0.583374L86.6426 0.589844L84.6947 5.81192L81.8084 5.81735C79.4607 5.81214 78.06 5.98939 76.9204 6.80104C75.8116 7.59144 75.1363 8.80655 74.3249 10.9992L73.3163 13.6908L67.7196 13.6931L69.063 10.1128C70.7656 5.58157 71.5389 3.30203 73.5218 1.90636Z" fill="#2A9FFF"/>
<path d="M63.9537 6.56434H61.3747L59.4925 9.85612L57.4034 6.56434H54.492L57.7993 11.777L54.3659 17.4461H56.9928L59.1916 13.7767L61.5173 17.4461H64.4444L60.8682 11.8402L63.9537 6.56434Z" fill="black"/>
<path d="M49.3976 6.34397C46.2488 6.34397 44.746 8.75327 44.746 12.0442C44.746 15.8236 46.6133 17.6665 49.9198 17.6665C51.5809 17.6665 52.7989 17.2412 53.5587 16.7216V14.6111C52.7519 15.1463 51.4068 15.6348 50.1408 15.6348C48.2421 15.6348 47.5304 14.7375 47.419 12.9258H53.6692V11.5558C53.6692 7.77641 51.9924 6.34313 49.3968 6.34313L49.3976 6.34397ZM51.0275 11.0206H47.4199C47.4834 9.28848 48.1161 8.37483 49.3664 8.37483C50.6167 8.37483 51.0275 9.42968 51.0275 10.7997V11.0206Z" fill="black"/>
<path d="M40.5034 7.83986C39.8544 6.86383 38.8893 6.34421 37.7661 6.34421C35.2506 6.34421 33.5102 8.48591 33.5102 12.0765C33.5102 15.667 35.2192 17.6666 37.6556 17.6666C38.8738 17.6666 39.8709 17.0995 40.567 16.0446L40.6932 17.446H43.0825V2.40723H40.5034V7.83986ZM38.3046 15.635C36.8968 15.635 36.2006 14.659 36.2006 12.0765C36.2006 9.49395 36.9281 8.37591 38.416 8.37591C39.8082 8.37591 40.5043 9.46276 40.5043 11.9977C40.5043 14.5326 39.7604 15.635 38.3046 15.635Z" fill="black"/>
<path d="M28.7958 6.39113C27.2453 6.39113 26.3438 6.94194 25.8208 7.46156H25.6782L25.6147 6.56433H23.0992V17.446H25.6782V9.63528C26.1689 9.05245 26.9285 8.54842 27.8613 8.54842C28.7941 8.54842 29.19 8.94245 29.19 9.76087V17.446H31.769V9.50885C31.769 7.33597 30.8989 6.39113 28.7941 6.39113H28.7958Z" fill="black"/>
<path d="M20.9809 10.0294C20.9809 7.38371 19.6358 6.39208 16.8991 6.39208C15.2059 6.37648 13.8294 7.10049 13.0384 7.66773V9.88823C13.8772 9.22659 15.1267 8.43936 16.5981 8.43936C17.8319 8.43936 18.4018 8.88019 18.4018 10.0458V10.7387H17.9904C14.0191 10.7387 12.2632 12.0143 12.2632 14.2816C12.2632 16.3921 13.6083 17.6045 15.6175 17.6045C17.1367 17.6045 17.7849 17.1006 18.2913 16.5809H18.4018C18.4176 16.8641 18.5124 17.2269 18.5916 17.4469H21.1228C21.0278 16.5653 20.98 15.6673 20.98 14.7857V10.0303L20.9809 10.0294ZM18.4018 14.848C18.0695 15.3365 17.4682 15.7141 16.5511 15.7141C15.4591 15.7141 14.9214 15.0845 14.9214 14.1396C14.9214 12.8795 15.8072 12.4543 18.0225 12.4543H18.4018V14.848Z" fill="black"/>
<path d="M10.6959 2.40723L7.4686 9.68276H10.1581L13.3698 2.40723H10.6959Z" fill="black"/>
<path d="M3.57467 2.40723H0.83728L5.80563 13.1469V17.446H8.43167V14.8946C8.43167 12.9737 8.19415 12.4065 7.45104 10.8L3.57467 2.40723Z" fill="black"/>
</g>
<defs>
<clipPath id="clip0_5_123">
<rect width="142" height="20" fill="white"/>
</clipPath>
</defs>
</svg>
